{
	"asset": {
		"generator": "Unity 2017.1.0f3",
		"extras": {
			"exporterVersion" : "2.2.1"
		},
		"version": "2.0"
	},
	"accessors": [
		{
			"bufferView": 2,
			"byteOffset": 0,
			"componentType": 5126,
			"count": 643,
			"max": [ 1.383125, 2.610179, 3.164984 ],
			"min": [ -1.383125, 0.251993, -3.199409 ],
			"type": "VEC3"
		},
		{
			"bufferView": 2,
			"byteOffset": 7716,
			"componentType": 5126,
			"count": 643,
			"max": [ 1, 1, 1 ],
			"min": [ -1, -1, -1 ],
			"type": "VEC3"
		},
		{
			"bufferView": 1,
			"byteOffset": 0,
			"componentType": 5126,
			"count": 643,
			"max": [ 0.926513, 0.985222 ],
			"min": [ 0.203371, 0.003965 ],
			"type": "VEC2"
		},
		{
			"bufferView": 3,
			"byteOffset": 0,
			"componentType": 5126,
			"count": 643,
			"max": [ 1, 1, 1, 1 ],
			"min": [ -1, -1, -1, -1 ],
			"type": "VEC4"
		},
		{
			"bufferView": 0,
			"byteOffset": 0,
			"componentType": 5123,
			"count": 1503,
			"max": [ 642 ],
			"min": [ 0 ],
			"type": "SCALAR"
		},
		{
			"bufferView": 2,
			"byteOffset": 15432,
			"componentType": 5126,
			"count": 20,
			"max": [ 0.035929, 0.783921, 0.553056 ],
			"min": [ -0.035931, -0.78392, -0.031965 ],
			"type": "VEC3"
		},
		{
			"bufferView": 2,
			"byteOffset": 15672,
			"componentType": 5126,
			"count": 20,
			"max": [ 1, 1, 1 ],
			"min": [ -1, 0, -1 ],
			"type": "VEC3"
		},
		{
			"bufferView": 1,
			"byteOffset": 5144,
			"componentType": 5126,
			"count": 20,
			"max": [ 0.552577, 0.167588 ],
			"min": [ 0.504396, 0.064964 ],
			"type": "VEC2"
		},
		{
			"bufferView": 3,
			"byteOffset": 10288,
			"componentType": 5126,
			"count": 20,
			"max": [ 1.278322E-06, 1.833923E-06, 1, 1 ],
			"min": [ -1, -1, -6.462893E-07, -1 ],
			"type": "VEC4"
		},
		{
			"bufferView": 0,
			"byteOffset": 3006,
			"componentType": 5123,
			"count": 30,
			"max": [ 19 ],
			"min": [ 0 ],
			"type": "SCALAR"
		},
		{
			"bufferView": 2,
			"byteOffset": 15912,
			"componentType": 5126,
			"count": 68,
			"max": [ 0.593266, 0.78392, 0.292511 ],
			"min": [ -0.593266, -0.78392, -0.292511 ],
			"type": "VEC3"
		},
		{
			"bufferView": 2,
			"byteOffset": 16728,
			"componentType": 5126,
			"count": 68,
			"max": [ 1, 1, 1 ],
			"min": [ -1, -1, -1 ],
			"type": "VEC3"
		},
		{
			"bufferView": 1,
			"byteOffset": 5304,
			"componentType": 5126,
			"count": 68,
			"max": [ 0.552577, 0.167588 ],
			"min": [ 0.504379, 0.064964 ],
			"type": "VEC2"
		},
		{
			"bufferView": 3,
			"byteOffset": 10608,
			"componentType": 5126,
			"count": 68,
			"max": [ 1, 1, 1, 1 ],
			"min": [ -1.29258E-06, -1, -1, -1 ],
			"type": "VEC4"
		},
		{
			"bufferView": 0,
			"byteOffset": 3066,
			"componentType": 5123,
			"count": 102,
			"max": [ 67 ],
			"min": [ 0 ],
			"type": "SCALAR"
		},
		{
			"bufferView": 2,
			"byteOffset": 17544,
			"componentType": 5126,
			"count": 136,
			"max": [ 0.192308, 0.443461, 0.44346 ],
			"min": [ -0.192308, -0.443461, -0.44346 ],
			"type": "VEC3"
		},
		{
			"bufferView": 2,
			"byteOffset": 19176,
			"componentType": 5126,
			"count": 136,
			"max": [ 0.9734017, 0.8573257, 0.8573257 ],
			"min": [ -1, -0.8573257, -0.8573257 ],
			"type": "VEC3"
		},
		{
			"bufferView": 1,
			"byteOffset": 5848,
			"componentType": 5126,
			"count": 136,
			"max": [ 0.061448, 0.999026 ],
			"min": [ 0.000481, 0.849438 ],
			"type": "VEC2"
		},
		{
			"bufferView": 3,
			"byteOffset": 11696,
			"componentType": 5126,
			"count": 136,
			"max": [ 0.857327, 0.5147744, 1, 1 ],
			"min": [ -0.857327, -0.5147744, -0.5147744, -1 ],
			"type": "VEC4"
		},
		{
			"bufferView": 0,
			"byteOffset": 3270,
			"componentType": 5123,
			"count": 420,
			"max": [ 135 ],
			"min": [ 0 ],
			"type": "SCALAR"
		},
		{
			"bufferView": 2,
			"byteOffset": 20808,
			"componentType": 5126,
			"count": 136,
			"max": [ 0.192308, 0.443461, 0.44346 ],
			"min": [ -0.192308, -0.443461, -0.44346 ],
			"type": "VEC3"
		},
		{
			"bufferView": 2,
			"byteOffset": 22440,
			"componentType": 5126,
			"count": 136,
			"max": [ 1, 0.8573257, 0.8573257 ],
			"min": [ -0.9734017, -0.8573257, -0.8573257 ],
			"type": "VEC3"
		},
		{
			"bufferView": 1,
			"byteOffset": 6936,
			"componentType": 5126,
			"count": 136,
			"max": [ 0.061448, 0.999026 ],
			"min": [ 0.000481, 0.849438 ],
			"type": "VEC2"
		},
		{
			"bufferView": 3,
			"byteOffset": 13872,
			"componentType": 5126,
			"count": 136,
			"max": [ 0.857327, 0.5147744, 1, 1 ],
			"min": [ -0.857327, -0.5147744, -0.5147744, -1 ],
			"type": "VEC4"
		},
		{
			"bufferView": 0,
			"byteOffset": 4110,
			"componentType": 5123,
			"count": 420,
			"max": [ 135 ],
			"min": [ 0 ],
			"type": "SCALAR"
		},
		{
			"bufferView": 2,
			"byteOffset": 24072,
			"componentType": 5126,
			"count": 128,
			"max": [ 0.213371, 0.443461, 0.44346 ],
			"min": [ -0.16999, -0.443461, -0.44346 ],
			"type": "VEC3"
		},
		{
			"bufferView": 2,
			"byteOffset": 25608,
			"componentType": 5126,
			"count": 128,
			"max": [ 0.9734017, 1, 1 ],
			"min": [ -1, -1, -1 ],
			"type": "VEC3"
		},
		{
			"bufferView": 1,
			"byteOffset": 8024,
			"componentType": 5126,
			"count": 128,
			"max": [ 0.052248, 0.999026 ],
			"min": [ 0.000481, 0.849438 ],
			"type": "VEC2"
		},
		{
			"bufferView": 3,
			"byteOffset": 16048,
			"componentType": 5126,
			"count": 128,
			"max": [ 0.9999496, 0.5147744, 1, 1 ],
			"min": [ -0.9999498, -0.5147744, -0.5147744, -1 ],
			"type": "VEC4"
		},
		{
			"bufferView": 0,
			"byteOffset": 4950,
			"componentType": 5123,
			"count": 420,
			"max": [ 127 ],
			"min": [ 0 ],
			"type": "SCALAR"
		},
		{
			"bufferView": 2,
			"byteOffset": 27144,
			"componentType": 5126,
			"count": 128,
			"max": [ 0.16999, 0.443461, 0.44346 ],
			"min": [ -0.213371, -0.443461, -0.44346 ],
			"type": "VEC3"
		},
		{
			"bufferView": 2,
			"byteOffset": 28680,
			"componentType": 5126,
			"count": 128,
			"max": [ 1, 1, 1 ],
			"min": [ -0.9734017, -1, -1 ],
			"type": "VEC3"
		},
		{
			"bufferView": 1,
			"byteOffset": 9048,
			"componentType": 5126,
			"count": 128,
			"max": [ 0.052248, 0.999026 ],
			"min": [ 0.000481, 0.849438 ],
			"type": "VEC2"
		},
		{
			"bufferView": 3,
			"byteOffset": 18096,
			"componentType": 5126,
			"count": 128,
			"max": [ 0.9999498, 0.5147744, 1, 1 ],
			"min": [ -0.9999496, -0.5147744, -0.5147744, -1 ],
			"type": "VEC4"
		},
		{
			"bufferView": 0,
			"byteOffset": 5790,
			"componentType": 5123,
			"count": 420,
			"max": [ 127 ],
			"min": [ 0 ],
			"type": "SCALAR"
		}
	],
	"buffers": [
		{
			"byteLength": 67062,
			"uri": "aa.bin"
		}
	],
	"bufferViews": [
		{
			"buffer": 0,
			"byteLength": 6630,
			"target": 34963,
			"byteOffset": 60432
		},
		{
			"buffer": 0,
			"byteLength": 10072,
			"target": 34962,
			"byteStride": 8,
			"byteOffset": 0
		},
		{
			"buffer": 0,
			"byteLength": 30216,
			"target": 34962,
			"byteStride": 12,
			"byteOffset": 10072
		},
		{
			"buffer": 0,
			"byteLength": 20144,
			"target": 34962,
			"byteStride": 16,
			"byteOffset": 40288
		}
	],
	"images": [
		{
			"uri": "Assets/Vehicle/Textures/Cars.jpg"
		},
		{
			"uri": "Assets/Vehicle/Textures/Cars_Gloss_converted_metalRoughness.jpg"
		},
		{
			"uri": "Assets/Vehicle/Textures/Cars_Emission.jpg"
		}
	],
	"materials": [
		{
			"pbrMetallicRoughness": {
				"baseColorTexture" : {
					"index" : 0,
					"texCoord" : 0
				},
				"baseColorFactor": [1, 1, 1, 1],
				"metallicRoughnessTexture" : {
					"index" : 1,
					"texCoord" : 0
				},
				"metallicFactor": 1,
				"roughnessFactor": 1
			},
			"emissiveTexture" : {
				"index" : 2,
				"texCoord" : 0
			},
			"emissiveFactor": [0.6, 0.6, 0.6],
			"doubleSided": false,
			"name": "Cars"
		}
	],
	"meshes": [
		{
			"name": "mesh_Ambulance_1A_16576Ambulance_1A",
			"primitives": [
				{
					"attributes": {
						"POSITION": 0,
						"NORMAL": 1,
						"TEXCOORD_0": 2,
						"TANGENT": 3
					},
					"indices": 4,
					"material": 0,
					"mode": 4
				}
			]
		},
		{
			"name": "mesh_Door_001_16578Door",
			"primitives": [
				{
					"attributes": {
						"POSITION": 5,
						"NORMAL": 6,
						"TEXCOORD_0": 7,
						"TANGENT": 8
					},
					"indices": 9,
					"material": 0,
					"mode": 4
				}
			]
		},
		{
			"name": "mesh_Drawer_16580Drawer",
			"primitives": [
				{
					"attributes": {
						"POSITION": 10,
						"NORMAL": 11,
						"TEXCOORD_0": 12,
						"TANGENT": 13
					},
					"indices": 14,
					"material": 0,
					"mode": 4
				}
			]
		},
		{
			"name": "mesh_Wheel_Front_L_16582Wheel_Front_L",
			"primitives": [
				{
					"attributes": {
						"POSITION": 15,
						"NORMAL": 16,
						"TEXCOORD_0": 17,
						"TANGENT": 18
					},
					"indices": 19,
					"material": 0,
					"mode": 4
				}
			]
		},
		{
			"name": "mesh_Wheel_Front_R_16584Wheel_Front_R",
			"primitives": [
				{
					"attributes": {
						"POSITION": 20,
						"NORMAL": 21,
						"TEXCOORD_0": 22,
						"TANGENT": 23
					},
					"indices": 24,
					"material": 0,
					"mode": 4
				}
			]
		},
		{
			"name": "mesh_Wheel_Rear_L_16586Wheel_Rear_L",
			"primitives": [
				{
					"attributes": {
						"POSITION": 25,
						"NORMAL": 26,
						"TEXCOORD_0": 27,
						"TANGENT": 28
					},
					"indices": 29,
					"material": 0,
					"mode": 4
				}
			]
		},
		{
			"name": "mesh_Wheel_Rear_R_16588Wheel_Rear_R",
			"primitives": [
				{
					"attributes": {
						"POSITION": 30,
						"NORMAL": 31,
						"TEXCOORD_0": 32,
						"TANGENT": 33
					},
					"indices": 34,
					"material": 0,
					"mode": 4
				}
			]
		}
	],
	"nodes": [
		{
			"name": "UnityGlTF_root",
			"children": [
				1
			]
		},
		{
			"name": "node_Ambulance_1A_-3408",
			"mesh": 0,
			"children": [
				2,
				3,
				4,
				5,
				6,
				7
			],
			"matrix": [1, 0, 0, 0, 0, 1, 0, 0, 0, 0, 1, 0, 23.12, -2.930264E-16, -13.78, 1]
		},
		{
			"name": "node_Door_-3418",
			"mesh": 1,
			"translation": [ 1.150603, 1.342522, -0.4857721]
		},
		{
			"name": "node_Drawer_-3420",
			"mesh": 2,
			"translation": [ -0.593266, 1.342522, -0.2252271]
		},
		{
			"name": "node_Wheel_Front_L_-3422",
			"mesh": 3,
			"translation": [ -1.005569, 0.4431582, -2.097303]
		},
		{
			"name": "node_Wheel_Front_R_-3424",
			"mesh": 4,
			"translation": [ 1.005568, 0.4431581, -2.097302]
		},
		{
			"name": "node_Wheel_Rear_L_-3426",
			"mesh": 5,
			"translation": [ -1.020748, 0.443157, 1.323697]
		},
		{
			"name": "node_Wheel_Rear_R_-3428",
			"mesh": 6,
			"translation": [ 1.020748, 0.443157, 1.323697]
		}
	],
	"samplers": [
		{
			"magFilter": 9729,
			"minFilter": 9985,
			"wrapS": 33071,
			"wrapT": 33071
		}
	],
	"scenes": [
		{
			"name":"defaultScene",
			"nodes": [
				0
			]
		}
	],
	"scene": 0,
	"textures": [
		{
			"sampler": 0,
			"source": 0
		},
		{
			"sampler": 0,
			"source": 1
		},
		{
			"sampler": 0,
			"source": 2
		}
	]
}