{
	"asset": {
		"generator": "Unity 5.6.4f1",
		"extras": {
			"exporterVersion" : "2.2.1"
		},
		"version": "2.0"
	},
	"accessors": [
		{
			"bufferView": 2,
			"byteOffset": 0,
			"componentType": 5126,
			"count": 2183,
			"max": [ 0.4893065, 0.634721, 2.778672 ],
			"min": [ -0.4186594, -0.2724589, -0.2503155 ],
			"type": "VEC3"
		},
		{
			"bufferView": 2,
			"byteOffset": 26196,
			"componentType": 5126,
			"count": 2183,
			"max": [ 0.9962876, 0.9994847, 0.9999844 ],
			"min": [ -1, -0.9969587, -0.9993661 ],
			"type": "VEC3"
		},
		{
			"bufferView": 1,
			"byteOffset": 0,
			"componentType": 5126,
			"count": 2183,
			"max": [ 0.9957762, 0.9963924 ],
			"min": [ 0.004368632, 0.002802957 ],
			"type": "VEC2"
		},
		{
			"bufferView": 3,
			"byteOffset": 0,
			"componentType": 5126,
			"count": 2183,
			"max": [ 0.9892218, 0.9988109, 0.9432733, 1 ],
			"min": [ -0.9926052, -0.9999999, -0.9999064, -1 ],
			"type": "VEC4"
		},
		{
			"bufferView": 0,
			"byteOffset": 0,
			"componentType": 5123,
			"count": 9408,
			"max": [ 2182 ],
			"min": [ 0 ],
			"type": "SCALAR"
		}
	],
	"buffers": [
		{
			"byteLength": 123600,
			"uri": "test1.bin"
		}
	],
	"bufferViews": [
		{
			"buffer": 0,
			"byteLength": 18816,
			"target": 34963,
			"byteOffset": 104784
		},
		{
			"buffer": 0,
			"byteLength": 17464,
			"target": 34962,
			"byteStride": 8,
			"byteOffset": 0
		},
		{
			"buffer": 0,
			"byteLength": 52392,
			"target": 34962,
			"byteStride": 12,
			"byteOffset": 17464
		},
		{
			"buffer": 0,
			"byteLength": 34928,
			"target": 34962,
			"byteStride": 16,
			"byteOffset": 69856
		}
	],
	"images": [
		{
			"uri": "Assets/Underwater_animal_pack/Assets_models/animals/Textures/black_sea_nettle_col3.jpg"
		},
		{
			"uri": "Assets/Underwater_animal_pack/Assets_models/animals/Textures/black_sea_nettle_nrml1_normals.jpg"
		}
	],
	"materials": [
		{
			"pbrMetallicRoughness": {
				"baseColorTexture" : {
					"index" : 0,
					"texCoord" : 0
				},
				"baseColorFactor": [1, 1, 1, 1],
				"metallicFactor": 0,
				"roughnessFactor": 0.5
			},
			"normalTexture" : {
				"index" : 1,
				"texCoord" : 0,
				"scale" : 1
			},
			"emissiveFactor": [0, 0, 0],
			"doubleSided": false,
			"name": "black_sea_nettle-No Name"
		}
	],
	"meshes": [
		{
			"name": "mesh_default_43704Black_sea_nettle_prefab",
			"primitives": [
				{
					"attributes": {
						"POSITION": 0,
						"NORMAL": 1,
						"TEXCOORD_0": 2,
						"TANGENT": 3
					},
					"indices": 4,
					"material": 0,
					"mode": 4
				}
			]
		}
	],
	"nodes": [
		{
			"name": "UnityGlTF_root",
			"children": [
				1
			]
		},
		{
			"name": "node_Black_sea_nettle_prefab_70236",
			"mesh": 0,
			"matrix": [1, 0, 0, 0, 0, -1.192093E-07, 1, 0, 0, -1, -1.192093E-07, 0, 0, 7.14, 25.35, 1]
		}
	],
	"samplers": [
		{
			"magFilter": 9729,
			"minFilter": 9985,
			"wrapS": 10497,
			"wrapT": 10497
		}
	],
	"scenes": [
		{
			"name":"defaultScene",
			"nodes": [
				0
			]
		}
	],
	"scene": 0,
	"textures": [
		{
			"sampler": 0,
			"source": 0
		},
		{
			"sampler": 0,
			"source": 1
		}
	]
}